<svg width="220" height="50" viewBox="0 0 220 50" fill="none" xmlns="http://www.w3.org/2000/svg">
<g style="mix-blend-mode:luminosity" opacity="0.5">
<path fill-rule="evenodd" clip-rule="evenodd" d="M40.1333 10.9492C39.8039 11.8429 39.6352 12.7942 39.636 13.7539V17.1828H36.2777C34.3476 17.1828 32.4964 17.9968 31.1316 19.4456C29.7668 20.8944 29 22.8594 29 24.9084C29 26.9573 29.7668 28.9224 31.1316 30.3712C32.4964 31.82 34.3476 32.634 36.2777 32.634H39.6899V36.2401C39.6899 38.2982 40.4601 40.2719 41.831 41.7272C43.2019 43.1824 45.0613 44 47 44C48.9387 44 50.7981 43.1824 52.169 41.7272C53.5399 40.2719 54.3101 38.2982 54.3101 36.2401V32.6334H57.7223C59.6524 32.6334 61.5036 31.8194 62.8684 30.3706C64.2332 28.9218 65 26.9567 65 24.9078C65 22.8588 64.2332 20.8938 62.8684 19.445C61.5036 17.9961 59.6524 17.1822 57.7223 17.1822H54.3632V13.7539C54.364 12.7942 54.1953 11.8429 53.8659 10.9492C53.477 9.85282 52.8459 8.87155 52.0257 8.08775C50.6573 6.74546 48.8625 6 46.9993 6C45.1361 6 43.3414 6.74546 41.9729 8.08775C41.1529 8.87162 40.5221 9.85289 40.1333 10.9492ZM52.4207 30.1329C53.6707 28.7078 54.3649 26.8325 54.3634 24.8852V19.6832H57.7225C58.3714 19.6789 59.0147 19.8109 59.6155 20.0715C60.2162 20.3322 60.7624 20.7164 61.2227 21.202C61.683 21.6876 62.0483 22.265 62.2976 22.9011C62.5469 23.5371 62.6752 24.2192 62.6752 24.9081C62.6752 25.597 62.5469 26.2791 62.2976 26.9151C62.0483 27.5512 61.683 28.1286 61.2227 28.6142C60.7624 29.0998 60.2162 29.484 59.6155 29.7446C59.0147 30.0053 58.3714 30.1372 57.7225 30.1329H52.4207ZM42.0561 30.6316C43.415 31.9245 45.1756 32.6396 47.0004 32.6396C48.8252 32.6396 50.5858 31.9245 51.9446 30.6316V36.2397C51.9446 37.6317 51.4237 38.9667 50.4965 39.951C49.5693 40.9353 48.3117 41.4882 47.0004 41.4882C45.6891 41.4882 44.4315 40.9353 43.5043 39.951C42.577 38.9667 42.0561 37.6317 42.0561 36.2397V30.6316ZM39.6368 19.6832V24.8852C39.6352 26.8324 40.3294 28.7078 41.5793 30.1329H36.2777C35.6288 30.1372 34.9854 30.0053 34.3847 29.7446C33.784 29.484 33.2378 29.0998 32.7775 28.6142C32.3172 28.1286 31.9519 27.5512 31.7026 26.9151C31.4533 26.2791 31.325 25.597 31.325 24.9081C31.325 24.2192 31.4533 23.5371 31.7026 22.9011C31.9519 22.265 32.3172 21.6876 32.7775 21.202C33.2378 20.7164 33.784 20.3322 34.3847 20.0715C34.9854 19.8109 35.6288 19.6789 36.2777 19.6832H39.6368ZM42.2866 13.7545C42.2978 12.4353 42.7993 11.1742 43.682 10.2456C44.5647 9.31694 45.7572 8.79594 47 8.79594C48.2428 8.79594 49.4352 9.31694 50.318 10.2456C51.2007 11.1742 51.7022 12.4353 51.7134 13.7545V17.1828H42.2866V13.7545ZM51.7134 19.6832V24.8852C51.7022 26.2044 51.2007 27.4655 50.318 28.3942C49.4352 29.3228 48.2428 29.8438 47 29.8438C45.7572 29.8438 44.5647 29.3228 43.682 28.3942C42.7993 27.4655 42.2978 26.2044 42.2866 24.8852V19.6832H51.7134Z" fill="#2272FF"/>
<path d="M148.404 35.4936H150.792V17.0588H156.826V14.7729H142.369V17.0588H148.404V35.4936Z" fill="black"/>
<path d="M161.879 35.4156C162.476 35.4196 163.069 35.3095 163.63 35.0907C164.175 34.8722 164.682 34.5574 165.129 34.1596C165.563 33.7651 165.923 33.2862 166.19 32.7486H166.243V35.4925H168.551V24.9885C168.572 24.0926 168.346 23.2097 167.901 22.4489C167.452 21.7107 166.812 21.1272 166.057 20.7697C164.261 19.9795 162.243 19.9795 160.447 20.7697C159.711 21.112 159.071 21.6516 158.59 22.3359C158.152 22.9829 157.886 23.7438 157.821 24.5383L157.808 24.6935H160.036L160.062 24.5665C160.19 23.9155 160.552 23.3435 161.071 22.9721C161.708 22.5311 162.46 22.314 163.219 22.3514C164.028 22.2951 164.827 22.573 165.448 23.1273C165.716 23.3948 165.927 23.7216 166.064 24.0848C166.202 24.448 166.263 24.8387 166.244 25.2297V29.5623C166.252 30.2377 166.072 30.9005 165.726 31.4672C165.386 32.0358 164.91 32.4983 164.347 32.8078C163.744 33.1348 163.074 33.2995 162.397 33.2876C161.683 33.3251 160.978 33.1064 160.395 32.6666C160.154 32.4702 159.961 32.2152 159.832 31.923C159.703 31.6309 159.641 31.31 159.652 30.9874V30.9592C159.644 30.6396 159.708 30.3225 159.84 30.0351C159.971 29.7476 160.166 29.4983 160.408 29.3085C161.043 28.8523 161.791 28.6068 162.557 28.603L167.398 28.2925V26.3854L162.292 26.6959C160.708 26.79 159.479 27.2133 158.605 27.9657C158.179 28.3184 157.838 28.7733 157.61 29.2933C157.382 29.8133 157.272 30.3835 157.291 30.957V30.9852C157.275 31.8025 157.472 32.6086 157.862 33.3132C158.252 33.9829 158.813 34.5212 159.48 34.8658C160.228 35.2462 161.05 35.4345 161.879 35.4156Z" fill="black"/>
<path d="M172.238 35.4936H174.546V14.7729H172.238V35.4936Z" fill="black"/>
<path d="M178.485 35.4936H180.793V14.7729H178.485V35.4936ZM187.537 35.4936H190.216L183.485 26.4843L181.946 28.121L187.537 35.4936ZM180.275 30.1244L182.967 27.387H183.153L189.691 20.4591H186.893L180.845 26.9356H180.275V30.1244Z" fill="black"/>
<path fill-rule="evenodd" clip-rule="evenodd" d="M116.047 35.4936H100.39V32.3059L111.234 17.9614H100.328V14.7729H115.985V17.9614L105.151 32.3059H116.045L116.047 35.4936Z" fill="black"/>
<path d="M93.3329 27.7996V14.7729H97.1645V28.1087C97.1645 32.494 93.7368 35.4936 88.5822 35.4936C83.4081 35.4936 80 32.4936 80 28.1087V14.7729H83.8316V27.7996C83.8316 30.3609 85.67 32.1947 88.5829 32.1947C91.4843 32.1947 93.3329 30.3609 93.3329 27.7996Z" fill="black"/>
<path d="M132.55 27.7996V14.7729H136.375V35.4911H132.55V33.5837C131.25 34.947 129.624 35.4922 127.796 35.4922C122.622 35.4922 119.214 32.4922 119.214 28.1073V14.7729H123.045V27.7996C123.045 30.3609 124.884 32.1947 127.797 32.1947C130.698 32.1947 132.55 30.3609 132.55 27.7996Z" fill="black"/>
</g>
</svg>
