<svg width="220" height="50" viewBox="0 0 220 50" fill="none" xmlns="http://www.w3.org/2000/svg">
<g style="mix-blend-mode:luminosity" opacity="0.5">
<path d="M21 38.4944H29.6282C37.4983 38.4944 43.2745 32.8244 43.2745 25.3126C43.2745 17.8369 37.8954 12.1308 29.5199 12.1308H21V38.4944ZM29.1589 16.8618C34.9351 16.8618 38.112 20.4732 38.112 25.3126C38.112 30.0436 34.6463 33.7273 29.3033 33.7273H26.1264V16.8618H29.1589Z" fill="black"/>
<path d="M45.3896 38.4944H50.3354V28.2017C50.3354 24.9153 51.9961 23.6152 54.5593 23.6152C55.6784 23.6152 56.6171 23.9041 57.1586 24.3014L58.9637 19.3898C58.1333 18.9564 56.9781 18.6314 55.6784 18.6314C53.1874 18.6314 51.238 19.6787 50.2993 21.99V18.9925H45.3896V38.4944Z" fill="black"/>
<path d="M56.3796 35.8219C56.3796 37.6638 57.6431 39 59.5204 39C61.3616 39 62.6612 37.6638 62.6612 35.8219C62.6612 33.9801 61.3616 32.6438 59.5204 32.6438C57.6792 32.6438 56.3796 33.9801 56.3796 35.8219Z" fill="black"/>
<path d="M71.9847 38.4944H77.0389V20.1843L84.7285 30.6214L92.6347 20.0037V38.4944H97.6166V12.1308H92.8874L84.7646 23.0012L76.9306 12.1308H71.9847V38.4944Z" fill="#2272FF"/>
<path d="M109.823 38.8917C114.119 38.8917 116.862 37.122 118.812 34.3773L114.732 31.9938C113.758 33.5828 112.205 34.594 109.895 34.594C107.007 34.594 104.949 33.005 104.299 30.477H119.787V28.599C119.787 22.8207 115.563 18.5953 109.714 18.5953C103.902 18.5953 99.4976 23.1096 99.4976 28.7796C99.4976 34.4496 103.541 38.8917 109.823 38.8917ZM109.714 22.8207C112.314 22.8207 114.191 24.1569 114.841 26.5766H104.443C105.238 24.3014 107.187 22.8207 109.714 22.8207Z" fill="#2272FF"/>
<path d="M130.391 38.8917C132.918 38.8917 135.12 37.736 136.492 35.8219V38.4944H141.402V10H136.492V21.4844C135.156 19.6787 133.026 18.5953 130.463 18.5953C125.481 18.5953 121.005 22.5318 121.005 28.7435C121.005 34.9552 125.59 38.8917 130.391 38.8917ZM131.366 34.1968C128.369 34.1968 125.951 31.7771 125.951 28.7073C125.951 25.6376 128.369 23.2179 131.366 23.2179C134.434 23.2179 136.781 25.6737 136.781 28.7073C136.781 31.741 134.434 34.1968 131.366 34.1968Z" fill="#2272FF"/>
<path d="M143.866 38.4944H148.956V18.9925H143.866V38.4944ZM143.216 13.5031C143.216 15.345 144.516 16.6812 146.393 16.6812C148.306 16.6812 149.606 15.345 149.606 13.5031C149.606 11.6252 148.306 10.2528 146.393 10.2528C144.552 10.2528 143.216 11.6252 143.216 13.5031Z" fill="#2272FF"/>
<path d="M158.957 38.8917C161.34 38.8917 163.325 37.8082 164.589 36.0386V38.4944L169.571 38.4583V18.9564L164.517 18.9925V29.7186C164.517 32.7522 162.784 34.4496 160.437 34.4496C157.766 34.4496 156.466 32.7522 156.466 30.0075V18.9925H151.376V30.6936C151.376 35.8219 154.156 38.8917 158.957 38.8917Z" fill="#2272FF"/>
<path d="M172.108 38.4944H177.126V27.66C177.126 24.5181 178.606 22.9651 180.953 22.9651C183.372 22.9651 184.455 24.4819 184.455 27.0822V38.4944H189.545V27.5517C189.545 24.4819 191.025 22.9651 193.263 22.9651C195.791 22.9651 196.874 24.5903 196.874 27.2266V38.4944H202V26.5044C202 21.6289 199.509 18.5953 194.563 18.5953C191.892 18.5953 189.689 19.8593 188.462 21.8817C187.415 19.787 185.429 18.5953 182.505 18.5953C180.159 18.5953 178.281 19.6065 177.09 21.3039V18.9925H172.108V38.4944Z" fill="#2272FF"/>
</g>
</svg>
