<svg width="220" height="50" viewBox="0 0 220 50" fill="none" xmlns="http://www.w3.org/2000/svg">
<g style="mix-blend-mode:luminosity" opacity="0.5">
<path d="M18.7513 32.9912L15.1069 24.6674L11.6691 32.9912L5.31573 18.5729H7.74531L11.5719 27.66L13.8679 21.9291L14.9855 19.0818L16.2003 21.8927L18.6298 27.66L22.2742 18.5608H24.7038L18.7513 32.9912Z" fill="#3E4485"/>
<path d="M30.0975 24.1832H35.151V26.1338H30.0975V30.423H36.1715V32.3737H27.8745V18.5734H36.1715V20.5119H30.0975V24.1832Z" fill="#3E4485"/>
<path d="M50.8582 25.4679C50.9264 27.2356 50.3283 28.9647 49.1818 30.3143C48.5756 30.9923 47.8124 31.5123 46.9587 31.8289C45.9954 32.2044 44.968 32.3896 43.9339 32.3741H40.6539V18.5738H43.9339C44.9685 18.5526 45.9969 18.738 46.9587 19.119C47.8124 19.4356 48.5756 19.9555 49.1818 20.6335C50.3275 21.9789 50.9257 23.7039 50.8582 25.4679ZM48.6958 25.4679C48.7589 24.2378 48.3605 23.0284 47.5782 22.0754C47.1045 21.6009 46.5336 21.2341 45.9046 20.9999C45.2757 20.7657 44.6035 20.6697 43.9339 20.7184H42.8162V30.2174H43.9339C44.6029 30.2606 45.2735 30.162 45.9017 29.9281C46.5298 29.6942 47.1012 29.3303 47.5782 28.8604C48.3574 27.9057 48.7554 26.6975 48.6958 25.4679Z" fill="#3E4485"/>
<path d="M64.804 25.4679C64.8663 27.2347 64.269 28.9617 63.1276 30.3143C62.5214 30.9923 61.7582 31.5123 60.9045 31.8289C59.9412 32.2044 58.9138 32.3896 57.8797 32.3741H54.5997V18.5738H57.8797C58.9143 18.5526 59.9427 18.738 60.9045 19.119C61.7582 19.4356 62.5214 19.9555 63.1276 20.6335C64.2682 21.9819 64.8656 23.7048 64.804 25.4679ZM62.6416 25.4679C62.6989 24.2386 62.3012 23.0312 61.524 22.0754C61.0503 21.6009 60.4794 21.2341 59.8504 20.9999C59.2215 20.7657 58.5493 20.6697 57.8797 20.7184H56.7621V30.2174H57.8797C58.5487 30.2606 59.2194 30.162 59.8475 29.9281C60.4757 29.6942 61.047 29.3303 61.524 28.8604C62.2808 27.8961 62.6607 26.6906 62.5931 25.4679H62.6416Z" fill="#3E4485"/>
<path d="M69.0436 32.3737V18.5734H71.218V32.3858L69.0436 32.3737Z" fill="#3E4485"/>
<path d="M78.1179 23.4924V32.3736H75.9555V17.9069L84.6413 27.418V18.5732H86.8886V33.0157L78.1179 23.4924Z" fill="#3E4485"/>
<path d="M101.6 27.1632V30.907L101.114 31.2342H101.041C101.041 31.2342 101.041 31.2342 100.968 31.2342L100.895 31.2948H100.834H100.749C100.749 31.2948 100.689 31.2948 100.652 31.2948C100.652 31.2948 100.652 31.2948 100.567 31.3553H100.434C99.6652 31.6945 98.8427 31.8954 98.0041 31.949H97.6518C96.9082 31.9556 96.169 31.8369 95.4652 31.5977C95.4026 31.568 95.3376 31.5436 95.2708 31.525L94.9914 31.4038C94.7514 31.3244 94.5228 31.2144 94.3111 31.0767C93.746 30.7716 93.23 30.3836 92.7804 29.9256C92.1459 29.2924 91.6387 28.5439 91.2863 27.7205C91.0169 27.0883 90.8489 26.4177 90.7883 25.7334C90.7765 25.5034 90.7765 25.2729 90.7883 25.0429V24.6914C90.834 23.8837 91.0147 23.0893 91.3228 22.3409C91.6755 21.5212 92.1827 20.7767 92.8169 20.1479C93.4422 19.5094 94.1956 19.0098 95.0278 18.6819C95.8738 18.3123 96.7889 18.1264 97.7125 18.1366H97.8218C98.6276 18.1921 99.4171 18.389 100.154 18.7182H100.276V21.2747C99.9908 21.0342 99.6765 20.8306 99.3403 20.6689C99.0631 20.548 98.7791 20.4428 98.49 20.3538H98.3685C98.3685 20.3538 98.3685 20.3538 98.2956 20.3538C98.2148 20.348 98.1335 20.348 98.0527 20.3538H97.9798H97.7004H97.6396H97.3481C96.4908 20.3512 95.6497 20.5862 94.9185 21.0324H94.8214C94.5174 21.2168 94.2395 21.4409 93.9952 21.6988C93.9223 21.7836 93.8252 21.8563 93.7523 21.9411C93.6794 22.0259 93.7523 21.9411 93.7523 21.9411C93.6606 22.0462 93.5792 22.1597 93.5094 22.2803L93.3878 22.4379C93.3831 22.4659 93.3831 22.4946 93.3878 22.5227C93.1153 22.9536 92.922 23.4295 92.8169 23.9281C92.8169 23.9281 92.744 24.2916 92.7197 24.4855V24.6793C92.7137 24.7681 92.7137 24.8572 92.7197 24.9459C92.7142 25.0266 92.7142 25.1076 92.7197 25.1882C92.7459 25.5399 92.8028 25.8885 92.8898 26.2302C93.1704 27.2266 93.7696 28.1043 94.5963 28.7298C95.423 29.3554 96.4319 29.6944 97.4696 29.6954H97.6032H98.0283L98.4414 29.6227H98.575C98.5845 29.6184 98.5949 29.6161 98.6054 29.6161C98.6159 29.6161 98.6262 29.6184 98.6357 29.6227C98.6357 29.6227 98.6357 29.6227 98.7086 29.6227C98.9749 29.5525 99.2318 29.4508 99.4739 29.3198V26.7755H96.8622V24.8126H101.648L101.6 27.1632Z" fill="#3E4485"/>
<path d="M122.522 30.2198C121.544 31.1442 120.315 31.7624 118.989 31.998C117.662 32.2336 116.295 32.0762 115.058 31.5453C113.82 31.0144 112.765 30.1332 112.024 29.0107C111.283 27.8883 110.888 26.5738 110.888 25.2299C110.888 23.886 111.283 22.5716 112.024 21.4492C112.765 20.3267 113.82 19.4455 115.058 18.9146C116.295 18.3837 117.662 18.2263 118.989 18.4619C120.315 18.6975 121.544 19.3157 122.522 20.2401L122.875 20.5791L126.083 17.1893L125.73 16.8503C124.09 15.3073 122.034 14.277 119.814 13.8864C117.594 13.4959 115.308 13.7623 113.238 14.6528C111.168 15.5432 109.405 17.0188 108.166 18.8972C106.927 20.7757 106.267 22.9748 106.267 25.2232C106.267 27.4716 106.927 29.6707 108.166 31.5491C109.405 33.4276 111.168 34.9031 113.238 35.7936C115.308 36.684 117.594 36.9504 119.814 36.5599C122.034 36.1694 124.09 35.139 125.73 33.596L126.083 33.257L122.875 29.8808L122.522 30.2198Z" fill="#3E4485"/>
<path d="M143.92 22.9097H134.743V13.703H130.08V36.7672H134.743V27.5605H143.92V36.7672H148.583V13.703H143.92V22.9097Z" fill="#3E4485"/>
<path d="M186.648 30.2192C185.669 31.1437 184.441 31.7619 183.115 31.9975C181.788 32.2331 180.421 32.0757 179.183 31.5448C177.946 31.0139 176.891 30.1326 176.15 29.0102C175.409 27.8878 175.014 26.5733 175.014 25.2294C175.014 23.8855 175.409 22.5711 176.15 21.4486C176.891 20.3262 177.946 19.445 179.183 18.9141C180.421 18.3831 181.788 18.2258 183.115 18.4614C184.441 18.697 185.669 19.3152 186.648 20.2396L187.001 20.5786L190.209 17.1888L189.856 16.8498C188.481 15.5683 186.813 14.6411 184.998 14.1486C183.182 13.6562 181.273 13.6135 179.437 14.0243C177.601 14.435 175.893 15.2868 174.462 16.5055C173.031 17.7243 171.92 19.2731 171.226 21.0175C170.531 22.7618 170.275 24.6489 170.478 26.5147C170.681 28.3805 171.338 30.1686 172.392 31.7236C173.445 33.2786 174.864 34.5535 176.524 35.4373C178.184 36.3212 180.035 36.7874 181.917 36.7954C184.879 36.808 187.732 35.6813 189.883 33.6497L190.237 33.3107L187.028 29.9345L186.648 30.2192Z" fill="#3E4485"/>
<path d="M202.948 25.2283L213.864 13.703H207.447L199.291 22.3131V13.703H194.628V36.7672H199.291V28.1435L207.556 36.7672H214L202.948 25.2283Z" fill="#3E4485"/>
<path d="M158.833 36.7951C158.088 36.7966 157.366 36.5375 156.794 36.0629L145.918 26.6799C145.681 26.4752 145.534 26.1871 145.506 25.8761C145.478 25.5651 145.572 25.2554 145.768 25.0121L148.31 21.9207C148.409 21.7985 148.532 21.6969 148.67 21.6218C148.808 21.5468 148.96 21.4998 149.117 21.4834C149.273 21.467 149.432 21.4816 149.583 21.5264C149.734 21.5712 149.874 21.6453 149.996 21.7444L158.534 29.1341L172.264 14.1106C172.478 13.8747 172.776 13.7324 173.094 13.7147C173.413 13.6969 173.725 13.8051 173.964 14.0157L176.954 16.7275C177.072 16.8329 177.168 16.9607 177.236 17.1032C177.304 17.2458 177.342 17.4003 177.35 17.558C177.358 17.7156 177.334 17.8731 177.28 18.0215C177.226 18.1699 177.143 18.3062 177.036 18.4224L161.225 35.6968C160.927 36.0376 160.559 36.3117 160.147 36.5009C159.734 36.6902 159.287 36.7904 158.833 36.7951Z" fill="url(#paint0_linear_72_193)"/>
</g>
<defs>
<linearGradient id="paint0_linear_72_193" x1="161.389" y1="13.7173" x2="161.389" y2="36.7679" gradientUnits="userSpaceOnUse">
<stop offset="0.28" stop-color="#65E04D"/>
<stop offset="0.46" stop-color="#5CD740"/>
<stop offset="0.79" stop-color="#44C11D"/>
<stop offset="1" stop-color="#33B004"/>
</linearGradient>
</defs>
</svg>
