<svg width="220" height="50" viewBox="0 0 220 50" fill="none" xmlns="http://www.w3.org/2000/svg">
<g style="mix-blend-mode:luminosity" opacity="0.5">
<path d="M28.993 6.00059C27.4334 5.9846 25.886 6.29218 24.4392 6.90579C22.9924 7.51939 21.6746 8.42699 20.561 9.57678C18.312 11.8989 17.0312 15.0664 17.0006 18.3827C16.9699 21.6989 18.1918 24.8922 20.3974 27.2599C22.603 29.6277 25.6118 30.9761 28.7617 31.0084C28.8399 27.675 30.1326 24.5009 32.3721 22.1431C34.6116 19.7853 37.6265 18.4244 40.7927 18.3421C40.7329 15.0746 39.4681 11.9598 37.266 9.65653C35.0638 7.35325 32.097 6.04215 28.993 6.00059Z" fill="#253FEB"/>
<path d="M40.7927 18.9104C37.7832 19.013 34.9248 20.3229 32.8028 22.572C30.6808 24.8212 29.4558 27.8393 29.3787 31.0083C32.3703 30.8496 35.198 29.5217 37.309 27.2843C39.4199 25.0469 40.6621 22.061 40.7927 18.9104Z" fill="black"/>
<path d="M41.024 43.9993C44.174 44.0316 47.2071 42.7453 49.4561 40.4232C51.7051 38.1011 52.9859 34.9335 53.0165 31.6172C53.0472 28.301 51.8253 25.1078 49.6197 22.74C47.4141 20.3722 44.4053 19.0239 41.2554 18.9916C41.1406 22.3123 39.8362 25.4643 37.6043 27.814C35.3725 30.1637 32.3786 31.537 29.2244 31.6578C29.2647 34.9319 30.5232 38.0586 32.7296 40.3662C34.9359 42.6739 37.914 43.9784 41.024 43.9993Z" fill="#FF3284"/>
<path d="M74.8523 34.7245H78.2947L85.1299 16.4518H81.4647L76.5611 30.0186L71.7071 16.4518H68.0171L74.8523 34.7245Z" fill="black"/>
<path d="M86.8314 34.7245H90.3233V21.2077H86.8314V34.7245ZM86.3856 17.403C86.3856 18.6796 87.2772 19.6057 88.565 19.6057C89.8775 19.6057 90.7691 18.6796 90.7691 17.403C90.7691 16.1014 89.8775 15.1502 88.565 15.1502C87.3019 15.1502 86.3856 16.1014 86.3856 17.403Z" fill="black"/>
<path d="M98.3231 34.9998C102.211 35.0248 104.069 32.6469 104.069 30.5443C104.069 27.6407 101.444 26.8647 99.2147 26.4142C97.2582 25.9886 96.1685 25.7633 96.1685 24.9123C96.1685 24.1614 96.8124 23.6107 98.1498 23.6107C99.388 23.6107 100.23 24.1363 100.775 25.0374L103.895 23.7609C102.657 21.9586 100.973 20.8823 98.1498 20.8823C94.856 20.8573 92.6766 22.8347 92.6766 25.1125C92.6766 27.9661 95.1779 28.6669 97.4316 29.1425C99.1404 29.493 100.577 29.7183 100.577 30.6945C100.577 31.4955 99.8338 32.1713 98.4469 32.1713C97.0353 32.1713 95.9704 31.5455 95.376 30.344L92.0822 31.6456C93.1472 33.7983 95.1531 34.9998 98.3231 34.9998Z" fill="black"/>
<path d="M111.162 34.9998C112.796 34.9998 114.158 34.2489 115.025 33.0224V34.7245L118.443 34.6994V21.1827L114.976 21.2077V28.6419C114.976 30.7445 113.787 31.921 112.177 31.921C110.345 31.921 109.453 30.7445 109.453 28.8422V21.2077H105.961V29.3178C105.961 32.8722 107.868 34.9998 111.162 34.9998Z" fill="black"/>
<path d="M125.287 34.9998C127.392 34.9998 129.224 34.0486 130.19 32.6469V34.7245H133.484V26.4142C133.484 23.0099 131.23 20.9324 127.293 20.9324C124.296 20.9324 122.34 22.2089 120.978 24.0112L124.123 25.5881C124.742 24.4617 125.757 23.8109 127.268 23.8109C129.2 23.8109 130.166 24.8122 130.166 26.264V26.4392H126.649C122.934 26.4392 120.631 28.1663 120.631 30.9698C120.631 33.3478 122.364 34.9998 125.287 34.9998ZM126.277 32.1463C124.866 32.1463 124.197 31.6456 124.197 30.6694C124.197 29.6181 125.014 28.9673 127.045 28.9673H130.19V29.6932C129.522 31.145 127.912 32.1463 126.277 32.1463Z" fill="black"/>
<path d="M136.12 34.7245H139.538V15H136.12V34.7245Z" fill="black"/>
<path d="M157.059 34.9748C162.235 34.9748 166.346 30.7696 166.346 25.5881C166.346 20.4067 162.21 16.2015 157.059 16.2015C151.932 16.2015 147.821 20.4067 147.821 25.5881C147.821 30.7696 151.932 34.9748 157.059 34.9748ZM157.059 31.4955C153.814 31.4955 151.338 28.8171 151.338 25.5881C151.338 22.3341 153.814 19.6558 157.059 19.6558C160.328 19.6558 162.829 22.3341 162.829 25.5881C162.829 28.8171 160.352 31.4955 157.059 31.4955Z" fill="black"/>
<path d="M169.042 34.7245H172.509V22.0337L177.784 29.2677L183.208 21.9086V34.7245H186.625V16.4518H183.381L177.809 23.9861L172.435 16.4518H169.042V34.7245Z" fill="black"/>
<path d="M196.38 34.9748C200.417 34.9748 203.017 32.3715 203.017 29.2427C203.017 25.2878 199.822 24.3866 197.049 23.7859C194.795 23.2602 192.987 22.9849 192.987 21.5081C192.987 20.3066 193.829 19.3304 195.786 19.3304C197.866 19.3304 199.079 20.2065 200.02 21.6082L202.868 19.3554C201.036 17.3029 199.03 16.1765 195.835 16.1765C192.071 16.1765 189.421 18.5794 189.421 21.5832C189.421 25.2878 192.442 26.1638 195.142 26.7396C197.643 27.3153 199.377 27.6657 199.377 29.3678C199.377 30.6945 198.361 31.6456 196.405 31.6456C194.25 31.6456 192.64 30.6694 191.452 28.7671L188.406 31.2201C190.114 33.4228 192.492 34.9748 196.38 34.9748Z" fill="black"/>
</g>
</svg>
