<svg width="220" height="50" viewBox="0 0 220 50" fill="none" xmlns="http://www.w3.org/2000/svg">
<g style="mix-blend-mode:luminosity" opacity="0.5">
<g clip-path="url(#clip0_75_209)">
<path d="M134.398 35.1472L136.892 35.1537L142.99 17.9643H143.599V15H141.838L134.398 35.1472ZM137.985 29.1354H148.048L147.254 27.0357H138.78L137.985 29.1354ZM149.127 35.1537H151.63L144.195 15H143.043V17.9643L149.127 35.1537Z" fill="black"/>
<path d="M153.132 35.1537H155.436V26.4044C155.436 25.5902 155.582 24.8811 155.873 24.2773C156.173 23.6734 156.593 23.2068 157.131 22.8775C157.67 22.5389 158.301 22.3697 159.025 22.3697C160.084 22.3697 160.874 22.6807 161.394 23.3029C161.924 23.9159 162.189 24.8034 162.189 25.9653V35.1537H164.493V25.5398C164.493 23.9113 164.074 22.6259 163.235 21.6835C162.405 20.732 161.236 20.2562 159.726 20.2562C158.685 20.2562 157.811 20.4758 157.105 20.915C156.398 21.345 155.86 21.8939 155.489 22.5618H155.436V20.5307H153.132V35.1537Z" fill="black"/>
<path d="M173.258 39.8811C174.503 39.8811 175.58 39.6524 176.489 39.195C177.398 38.7466 178.1 38.1108 178.594 37.2873C179.088 36.4731 179.336 35.5124 179.336 34.4054V20.5307H177.032V22.9461H176.979C176.696 22.4154 176.339 21.9488 175.906 21.5463C175.483 21.1437 174.997 20.8281 174.45 20.5993C173.903 20.3706 173.302 20.2562 172.649 20.2562C171.484 20.2562 170.46 20.5581 169.577 21.162C168.694 21.7658 168.001 22.6167 167.499 23.7146C167.004 24.8034 166.757 26.0888 166.757 27.571V27.5847C166.757 29.0669 167 30.3614 167.485 31.4685C167.98 32.5664 168.664 33.4219 169.538 34.0348C170.42 34.6387 171.44 34.9406 172.596 34.9406C173.258 34.9406 173.867 34.8354 174.423 34.625C174.988 34.4054 175.487 34.1035 175.92 33.7192C176.352 33.3349 176.705 32.8775 176.979 32.3468H177.032V34.1721C177.032 35.2791 176.701 36.1529 176.039 36.7933C175.377 37.4429 174.441 37.7677 173.232 37.7677C172.296 37.7677 171.51 37.6167 170.875 37.3148C170.248 37.022 169.825 36.6195 169.604 36.1071L169.551 35.9836H167.234L167.26 36.1071C167.41 36.8116 167.741 37.4475 168.253 38.0147C168.774 38.5911 169.454 39.044 170.292 39.3734C171.14 39.7119 172.128 39.8811 173.258 39.8811ZM173.099 32.8272C172.287 32.8272 171.581 32.6167 170.981 32.1959C170.38 31.7659 169.917 31.162 169.591 30.3843C169.273 29.5975 169.114 28.6643 169.114 27.5847V27.571C169.114 26.5097 169.273 25.5902 169.591 24.8125C169.917 24.0348 170.38 23.4356 170.981 23.0147C171.581 22.5847 172.287 22.3697 173.099 22.3697C173.876 22.3697 174.56 22.5847 175.151 23.0147C175.743 23.4447 176.202 24.0485 176.528 24.8262C176.864 25.6039 177.032 26.5188 177.032 27.571V27.5847C177.032 28.6368 176.864 29.5563 176.528 30.3432C176.202 31.13 175.743 31.743 175.151 32.1821C174.569 32.6122 173.885 32.8272 173.099 32.8272Z" fill="black"/>
<path d="M187.982 35.0778C188.732 35.0778 189.429 34.9726 190.074 34.7622C190.718 34.5426 191.292 34.2407 191.795 33.8564C192.298 33.463 192.709 33.0101 193.027 32.4978C193.353 31.9854 193.574 31.4365 193.689 30.8509L193.715 30.7137H191.451L191.411 30.8372C191.279 31.2489 191.058 31.6149 190.749 31.9351C190.44 32.2553 190.056 32.5069 189.597 32.6899C189.138 32.8729 188.617 32.9644 188.035 32.9644C187.205 32.9644 186.486 32.7768 185.877 32.4017C185.267 32.0175 184.795 31.4685 184.46 30.7549C184.133 30.0412 183.97 29.1812 183.97 28.1748V27.2553C183.97 26.194 184.137 25.302 184.473 24.5792C184.808 23.8473 185.267 23.2983 185.85 22.9323C186.433 22.5572 187.09 22.3697 187.823 22.3697C188.556 22.3697 189.204 22.5481 189.769 22.9049C190.334 23.2526 190.775 23.7878 191.093 24.5106C191.42 25.2334 191.583 26.1483 191.583 27.2553V28.1748L192.748 26.4456H182.791V28.312H193.887V27.4337C193.887 26.0064 193.644 24.753 193.159 23.6734C192.673 22.5938 191.976 21.7567 191.067 21.162C190.166 20.5581 189.09 20.2562 187.836 20.2562C186.583 20.2562 185.492 20.5719 184.566 21.2032C183.639 21.8253 182.92 22.699 182.408 23.8244C181.895 24.9406 181.639 26.2352 181.639 27.7082V27.7219C181.639 29.2132 181.891 30.5124 182.394 31.6195C182.906 32.7173 183.635 33.5682 184.579 34.1721C185.532 34.7759 186.666 35.0778 187.982 35.0778Z" fill="black"/>
<path d="M196.337 35.0778H198.64V15H196.337V35.0778Z" fill="black"/>
<path fill-rule="evenodd" clip-rule="evenodd" d="M108.986 35.1552H93.3555V32.0548L104.181 18.1029H93.2936V15.0024H108.924V18.1029L98.1085 32.0548H108.986V35.1552Z" fill="black"/>
<path d="M86.3106 27.6721V15.0027H90.1357V27.9726C90.1357 32.2377 86.7127 35.1554 81.5679 35.1554C76.4024 35.1554 73 32.2377 73 27.9726V15.0027H76.8251V27.6721C76.8251 30.1633 78.6604 31.9469 81.5679 31.9469C84.465 31.9469 86.3106 30.1633 86.3106 27.6721Z" fill="black"/>
<path d="M125.461 27.6718V15.0024H129.28V35.1528H125.461V33.299C124.164 34.6249 122.54 35.1552 120.715 35.1552C115.55 35.1552 112.148 32.2375 112.148 27.9723V15.0024H115.973V27.6718C115.973 30.1631 117.808 31.9466 120.715 31.9466C123.613 31.9466 125.461 30.1631 125.461 27.6718Z" fill="black"/>
</g>
<path fill-rule="evenodd" clip-rule="evenodd" d="M33.1649 10.9495C32.8376 11.8432 32.6702 12.7944 32.6713 13.7539V17.1825H29.328C28.3698 17.1704 27.4189 17.3613 26.5303 17.7441C25.6418 18.1269 24.8332 18.694 24.1516 19.4125C23.47 20.1311 22.9289 20.9868 22.5595 21.9302C22.1902 22.8735 22 23.8856 22 24.9079C22 25.9301 22.1902 26.9423 22.5595 27.8856C22.9289 28.8289 23.47 29.6846 24.1516 30.4032C24.8332 31.1217 25.6418 31.6889 26.5303 32.0717C27.4189 32.4545 28.3698 32.6453 29.328 32.6332H32.7283V36.2399C32.7283 38.298 33.4947 40.2718 34.8589 41.7271C36.2231 43.1824 38.0733 44 40.0025 44C41.9318 44 43.782 43.1824 45.1462 41.7271C46.5104 40.2718 47.2768 38.298 47.2768 36.2399V32.6343H50.672C51.6302 32.6464 52.5811 32.4555 53.4697 32.0727C54.3582 31.6899 55.1668 31.1228 55.8484 30.4043C56.53 29.6857 57.0711 28.83 57.4405 27.8867C57.8098 26.9434 58 25.9312 58 24.9089C58 23.8867 57.8098 22.8745 57.4405 21.9312C57.0711 20.9879 56.53 20.1322 55.8484 19.4136C55.1668 18.6951 54.3582 18.128 53.4697 17.7452C52.5811 17.3624 51.6302 17.1715 50.672 17.1836H47.3246V13.7539C47.3254 12.7943 47.1577 11.8431 46.83 10.9495C46.4428 9.85287 45.8146 8.87141 44.9981 8.08756C43.6363 6.74539 41.8504 6 39.9964 6C38.1424 6 36.3565 6.74539 34.9948 8.08756C34.179 8.87168 33.5515 9.85311 33.1649 10.9495ZM45.392 30.1339C46.6361 28.7087 47.3271 26.8331 47.3256 24.8856V19.684H50.6679C51.317 19.674 51.9615 19.8018 52.564 20.0599C53.1664 20.318 53.7147 20.7013 54.1771 21.1874C54.6394 21.6736 55.0066 22.253 55.2572 22.8918C55.5078 23.5307 55.6368 24.2164 55.6368 24.9089C55.6368 25.6015 55.5078 26.2872 55.2572 26.926C55.0066 27.5649 54.6394 28.1443 54.1771 28.6305C53.7147 29.1166 53.1664 29.4999 52.564 29.758C51.9615 30.0161 51.317 30.1439 50.6679 30.1339H45.392ZM35.0782 30.6322C36.4304 31.925 38.1822 32.6399 39.998 32.6399C41.8137 32.6399 43.5655 31.925 44.9177 30.6322V36.2399C44.9177 37.6319 44.3994 38.9668 43.4767 39.951C42.5541 40.9353 41.3028 41.4882 39.998 41.4882C38.6932 41.4882 37.4418 40.9353 36.5192 39.951C35.5966 38.9668 35.0782 37.6319 35.0782 36.2399V30.6322ZM32.6713 19.684V24.8856C32.6698 26.8331 33.3609 28.7087 34.605 30.1339H29.328C28.6789 30.1439 28.0344 30.0161 27.432 29.758C26.8295 29.4999 26.2812 29.1166 25.8188 28.6305C25.3565 28.1443 24.9893 27.5649 24.7387 26.926C24.4881 26.2872 24.3591 25.6015 24.3591 24.9089C24.3591 24.2164 24.4881 23.5307 24.7387 22.8918C24.9893 22.253 25.3565 21.6736 25.8188 21.1874C26.2812 20.7013 26.8295 20.318 27.432 20.0599C28.0344 19.8018 28.6789 19.674 29.328 19.684H32.6713ZM35.3082 13.7549C35.3264 12.4407 35.8285 11.1868 36.7061 10.2643C37.5838 9.34177 38.7664 8.82463 39.9985 8.82463C41.2306 8.82463 42.4132 9.34177 43.2908 10.2643C44.1684 11.1868 44.6706 12.4407 44.6887 13.7549V17.1836H35.3072L35.3082 13.7549ZM44.6887 19.684V24.8856C44.6706 26.1998 44.1684 27.4537 43.2908 28.3762C42.4132 29.2988 41.2306 29.8159 39.9985 29.8159C38.7664 29.8159 37.5838 29.2988 36.7061 28.3762C35.8285 27.4537 35.3264 26.1998 35.3082 24.8856V19.684H44.6887Z" fill="#F64379"/>
</g>
<defs>
<clipPath id="clip0_75_209">
<rect width="126" height="25" fill="white" transform="translate(73 15)"/>
</clipPath>
</defs>
</svg>
